<svg xmlns="http://www.w3.org/2000/svg" xmlns:xlink="http://www.w3.org/1999/xlink" width="170" zoomAndPan="magnify" viewBox="0 0 127.5 44.999999" height="60" preserveAspectRatio="xMidYMid meet" version="1.0"><defs><g/><clipPath id="2427f21762"><path d="M 0 0.0859375 L 127 0.0859375 L 127 44.910156 L 0 44.910156 Z M 0 0.0859375 " clip-rule="nonzero"/></clipPath></defs><g clip-path="url(#2427f21762)"><path fill="#ffffff" d="M 0 0.0859375 L 127 0.0859375 L 127 44.910156 L 0 44.910156 Z M 0 0.0859375 " fill-opacity="1" fill-rule="nonzero"/><path fill="#ffffff" d="M 0 0.0859375 L 127 0.0859375 L 127 44.910156 L 0 44.910156 Z M 0 0.0859375 " fill-opacity="1" fill-rule="nonzero"/></g><g fill="#7367f0" fill-opacity="1"><g transform="translate(-0.0319605, 24.625598)"><g><path d="M 11.015625 0 L 3.234375 0 C 2.765625 0 2.332031 -0.113281 1.9375 -0.34375 C 1.539062 -0.582031 1.222656 -0.894531 0.984375 -1.28125 C 0.753906 -1.675781 0.640625 -2.113281 0.640625 -2.59375 L 0.640625 -5.1875 L 3.234375 -5.1875 L 3.234375 -2.59375 L 11.015625 -2.59375 L 11.015625 -10.375 L 5.828125 -10.375 L 5.828125 -12.96875 L 13.609375 -12.96875 L 13.609375 -2.59375 C 13.609375 -2.125 13.488281 -1.691406 13.25 -1.296875 C 13.019531 -0.910156 12.710938 -0.597656 12.328125 -0.359375 C 11.941406 -0.117188 11.503906 0 11.015625 0 Z M 11.015625 0 "/></g></g></g><g fill="#b867f0" fill-opacity="1"><g transform="translate(14.711808, 24.625598)"><g><path d="M 13.609375 0 L 0.640625 0 L 0.640625 -2.59375 L 5.828125 -2.59375 L 5.828125 -10.375 L 0.640625 -10.375 L 0.640625 -12.96875 L 13.609375 -12.96875 L 13.609375 -10.375 L 8.421875 -10.375 L 8.421875 -2.59375 L 13.609375 -2.59375 Z M 13.609375 0 "/></g></g></g><g fill="#7367f0" fill-opacity="1"><g transform="translate(29.455576, 24.625598)"><g><path d="M 7.125 0 C 6.539062 0 6.003906 -0.203125 5.515625 -0.609375 L 1.140625 -4.375 C 0.804688 -4.664062 0.640625 -5.007812 0.640625 -5.40625 L 0.640625 -12.96875 L 3.234375 -12.96875 L 3.234375 -6 L 7.125 -2.640625 L 11.015625 -6 L 11.015625 -12.96875 L 13.609375 -12.96875 L 13.59375 -5.40625 C 13.59375 -5 13.4375 -4.65625 13.125 -4.375 L 8.75 -0.609375 C 8.269531 -0.203125 7.726562 0 7.125 0 Z M 7.125 0 "/></g></g></g><g fill="#b867f0" fill-opacity="1"><g transform="translate(44.199344, 24.625598)"><g><path d="M 13.609375 0 L 0.640625 0 L 0.640625 -2.59375 L 5.828125 -2.59375 L 5.828125 -10.375 L 0.640625 -10.375 L 0.640625 -12.96875 L 13.609375 -12.96875 L 13.609375 -10.375 L 8.421875 -10.375 L 8.421875 -2.59375 L 13.609375 -2.59375 Z M 13.609375 0 "/></g></g></g><g fill="#000000" fill-opacity="1"><g transform="translate(58.943114, 24.625598)"><g/></g></g><g fill="#7367f0" fill-opacity="1"><g transform="translate(66.558025, 24.625598)"><g><path d="M 11.015625 -7.78125 L 11.015625 -12.96875 L 13.609375 -12.96875 L 13.609375 0 L 11.015625 0 L 11.015625 -5.1875 L 3.234375 -5.1875 L 3.234375 0 L 0.640625 0 L 0.640625 -12.96875 L 3.234375 -12.96875 L 3.234375 -7.78125 Z M 11.015625 -7.78125 "/></g></g></g><g fill="#b867f0" fill-opacity="1"><g transform="translate(81.301795, 24.625598)"><g><path d="M 13.609375 0 L 0.640625 0 L 0.640625 -2.59375 L 5.828125 -2.59375 L 5.828125 -10.375 L 0.640625 -10.375 L 0.640625 -12.96875 L 13.609375 -12.96875 L 13.609375 -10.375 L 8.421875 -10.375 L 8.421875 -2.59375 L 13.609375 -2.59375 Z M 13.609375 0 "/></g></g></g><g fill="#7367f0" fill-opacity="1"><g transform="translate(96.045561, 24.625598)"><g><path d="M 13.609375 -10.375 L 13.609375 -7.78125 C 13.609375 -7.300781 13.488281 -6.863281 13.25 -6.46875 C 13.019531 -6.070312 12.707031 -5.757812 12.3125 -5.53125 C 11.925781 -5.300781 11.492188 -5.1875 11.015625 -5.1875 L 8.421875 -5.1875 L 11.015625 -2.59375 L 13.609375 -2.59375 L 13.609375 0 L 10.5 0 C 10.132812 0 9.820312 -0.128906 9.5625 -0.390625 L 4.765625 -5.1875 L 3.234375 -5.1875 L 3.234375 0 L 0.640625 0 L 0.640625 -12.96875 L 11.015625 -12.96875 C 11.492188 -12.96875 11.925781 -12.847656 12.3125 -12.609375 C 12.707031 -12.378906 13.019531 -12.066406 13.25 -11.671875 C 13.488281 -11.273438 13.609375 -10.84375 13.609375 -10.375 Z M 11.015625 -10.375 L 3.234375 -10.375 L 3.234375 -7.78125 L 11.015625 -7.78125 Z M 11.015625 -10.375 "/></g></g></g><g fill="#b867f0" fill-opacity="1"><g transform="translate(110.789331, 24.625598)"><g><path d="M 13.609375 -12.96875 L 13.609375 -10.375 L 3.234375 -10.375 L 3.234375 -7.78125 L 13.609375 -7.78125 L 13.609375 -5.1875 L 3.234375 -5.1875 L 3.234375 -2.59375 L 13.609375 -2.59375 L 13.609375 0 L 3.234375 0 C 2.765625 0 2.332031 -0.113281 1.9375 -0.34375 C 1.539062 -0.582031 1.222656 -0.894531 0.984375 -1.28125 C 0.753906 -1.675781 0.640625 -2.113281 0.640625 -2.59375 L 0.640625 -10.375 C 0.640625 -10.84375 0.753906 -11.273438 0.984375 -11.671875 C 1.222656 -12.066406 1.539062 -12.378906 1.9375 -12.609375 C 2.332031 -12.847656 2.765625 -12.96875 3.234375 -12.96875 Z M 13.609375 -12.96875 "/></g></g></g><g fill="#b867f0" fill-opacity="1"><g transform="translate(20.471853, 37.397177)"><g><path d="M 3.609375 0 L 3.09375 0 L 2.734375 -1.09375 L 1.03125 -1.09375 L 0.65625 0 L 0.15625 0 L 1.5625 -4 L 2.203125 -4 Z M 1.84375 -3.515625 L 1.15625 -1.5 L 2.59375 -1.5 L 1.90625 -3.515625 Z M 1.84375 -3.515625 "/></g></g></g><g fill="#b867f0" fill-opacity="1"><g transform="translate(24.578349, 37.397177)"><g><path d="M 1.078125 0 L 0.609375 0 L 0.609375 -4 L 1.078125 -4 Z M 1.078125 0 "/></g></g></g><g fill="#b867f0" fill-opacity="1"><g transform="translate(26.605551, 37.397177)"><g/></g></g><g fill="#b867f0" fill-opacity="1"><g transform="translate(28.323185, 37.397177)"><g><path d="M 0.609375 0 L 0.609375 -4 L 2.0625 -4 C 2.332031 -4 2.554688 -3.953125 2.734375 -3.859375 C 2.921875 -3.773438 3.054688 -3.648438 3.140625 -3.484375 C 3.234375 -3.328125 3.28125 -3.140625 3.28125 -2.921875 C 3.28125 -2.671875 3.21875 -2.460938 3.09375 -2.296875 C 2.96875 -2.140625 2.773438 -2.019531 2.515625 -1.9375 L 2.515625 -1.890625 C 2.648438 -1.835938 2.753906 -1.753906 2.828125 -1.640625 C 2.910156 -1.535156 2.988281 -1.375 3.0625 -1.15625 L 3.4375 0 L 2.953125 0 L 2.546875 -1.21875 C 2.492188 -1.363281 2.4375 -1.476562 2.375 -1.5625 C 2.320312 -1.644531 2.242188 -1.703125 2.140625 -1.734375 C 2.046875 -1.773438 1.925781 -1.796875 1.78125 -1.796875 L 1.078125 -1.796875 L 1.078125 0 Z M 2.046875 -2.203125 C 2.296875 -2.203125 2.484375 -2.257812 2.609375 -2.375 C 2.734375 -2.488281 2.796875 -2.664062 2.796875 -2.90625 C 2.796875 -3.132812 2.734375 -3.304688 2.609375 -3.421875 C 2.484375 -3.546875 2.296875 -3.609375 2.046875 -3.609375 L 1.078125 -3.609375 L 1.078125 -2.203125 Z M 2.046875 -2.203125 "/></g></g></g><g fill="#b867f0" fill-opacity="1"><g transform="translate(32.37489, 37.397177)"><g><path d="M 1.078125 -1.890625 L 1.078125 -0.390625 L 3.109375 -0.390625 L 3.109375 0 L 0.609375 0 L 0.609375 -4 L 3.078125 -4 L 3.078125 -3.609375 L 1.078125 -3.609375 L 1.078125 -2.28125 L 2.84375 -2.28125 L 2.84375 -1.890625 Z M 1.078125 -1.890625 "/></g></g></g><g fill="#b867f0" fill-opacity="1"><g transform="translate(36.100595, 37.397177)"><g><path d="M 2.21875 0.0625 C 1.863281 0.0625 1.546875 -0.015625 1.265625 -0.171875 C 0.992188 -0.335938 0.78125 -0.578125 0.625 -0.890625 C 0.476562 -1.203125 0.40625 -1.570312 0.40625 -2 C 0.40625 -2.4375 0.476562 -2.804688 0.625 -3.109375 C 0.78125 -3.421875 0.992188 -3.65625 1.265625 -3.8125 C 1.546875 -3.976562 1.863281 -4.0625 2.21875 -4.0625 C 2.59375 -4.0625 2.898438 -3.988281 3.140625 -3.84375 C 3.390625 -3.707031 3.570312 -3.492188 3.6875 -3.203125 L 3.375 -3.015625 L 3.3125 -3.015625 C 3.207031 -3.242188 3.066406 -3.40625 2.890625 -3.5 C 2.710938 -3.59375 2.488281 -3.640625 2.21875 -3.640625 C 1.957031 -3.640625 1.726562 -3.582031 1.53125 -3.46875 C 1.34375 -3.351562 1.191406 -3.175781 1.078125 -2.9375 C 0.960938 -2.695312 0.90625 -2.382812 0.90625 -2 C 0.90625 -1.625 0.960938 -1.3125 1.078125 -1.0625 C 1.191406 -0.820312 1.34375 -0.644531 1.53125 -0.53125 C 1.726562 -0.414062 1.957031 -0.359375 2.21875 -0.359375 C 2.507812 -0.359375 2.742188 -0.425781 2.921875 -0.5625 C 3.109375 -0.695312 3.25 -0.910156 3.34375 -1.203125 L 3.40625 -1.203125 L 3.71875 -1.046875 C 3.625 -0.691406 3.445312 -0.414062 3.1875 -0.21875 C 2.9375 -0.03125 2.613281 0.0625 2.21875 0.0625 Z M 2.21875 0.0625 "/></g></g></g><g fill="#b867f0" fill-opacity="1"><g transform="translate(40.371463, 37.397177)"><g><path d="M 0.609375 0 L 0.609375 -4 L 2.0625 -4 C 2.332031 -4 2.554688 -3.953125 2.734375 -3.859375 C 2.921875 -3.773438 3.054688 -3.648438 3.140625 -3.484375 C 3.234375 -3.328125 3.28125 -3.140625 3.28125 -2.921875 C 3.28125 -2.671875 3.21875 -2.460938 3.09375 -2.296875 C 2.96875 -2.140625 2.773438 -2.019531 2.515625 -1.9375 L 2.515625 -1.890625 C 2.648438 -1.835938 2.753906 -1.753906 2.828125 -1.640625 C 2.910156 -1.535156 2.988281 -1.375 3.0625 -1.15625 L 3.4375 0 L 2.953125 0 L 2.546875 -1.21875 C 2.492188 -1.363281 2.4375 -1.476562 2.375 -1.5625 C 2.320312 -1.644531 2.242188 -1.703125 2.140625 -1.734375 C 2.046875 -1.773438 1.925781 -1.796875 1.78125 -1.796875 L 1.078125 -1.796875 L 1.078125 0 Z M 2.046875 -2.203125 C 2.296875 -2.203125 2.484375 -2.257812 2.609375 -2.375 C 2.734375 -2.488281 2.796875 -2.664062 2.796875 -2.90625 C 2.796875 -3.132812 2.734375 -3.304688 2.609375 -3.421875 C 2.484375 -3.546875 2.296875 -3.609375 2.046875 -3.609375 L 1.078125 -3.609375 L 1.078125 -2.203125 Z M 2.046875 -2.203125 "/></g></g></g><g fill="#b867f0" fill-opacity="1"><g transform="translate(44.423168, 37.397177)"><g><path d="M 2.0625 0.0625 C 1.570312 0.0625 1.203125 -0.0625 0.953125 -0.3125 C 0.703125 -0.5625 0.578125 -0.929688 0.578125 -1.421875 L 0.578125 -4 L 1.046875 -4 L 1.046875 -1.4375 C 1.046875 -1.082031 1.128906 -0.816406 1.296875 -0.640625 C 1.460938 -0.460938 1.71875 -0.375 2.0625 -0.375 C 2.75 -0.375 3.09375 -0.726562 3.09375 -1.4375 L 3.09375 -4 L 3.5625 -4 L 3.5625 -1.421875 C 3.5625 -0.929688 3.429688 -0.5625 3.171875 -0.3125 C 2.921875 -0.0625 2.550781 0.0625 2.0625 0.0625 Z M 2.0625 0.0625 "/></g></g></g><g fill="#b867f0" fill-opacity="1"><g transform="translate(48.894024, 37.397177)"><g><path d="M 3.125 -4 L 3.125 -3.609375 L 1.875 -3.609375 L 1.875 0 L 1.40625 0 L 1.40625 -3.609375 L 0.140625 -3.609375 L 0.140625 -4 Z M 3.125 -4 "/></g></g></g><g fill="#b867f0" fill-opacity="1"><g transform="translate(52.507406, 37.397177)"><g><path d="M 1.046875 0 L 0.609375 0 L 0.609375 -4 L 1.296875 -4 L 2.515625 -0.609375 L 2.578125 -0.609375 L 3.78125 -4 L 4.46875 -4 L 4.46875 0 L 4.015625 0 L 4.015625 -3.265625 L 3.953125 -3.28125 L 2.765625 0 L 2.296875 0 L 1.109375 -3.28125 L 1.046875 -3.265625 Z M 1.046875 0 "/></g></g></g><g fill="#b867f0" fill-opacity="1"><g transform="translate(57.920657, 37.397177)"><g><path d="M 1.078125 -1.890625 L 1.078125 -0.390625 L 3.109375 -0.390625 L 3.109375 0 L 0.609375 0 L 0.609375 -4 L 3.078125 -4 L 3.078125 -3.609375 L 1.078125 -3.609375 L 1.078125 -2.28125 L 2.84375 -2.28125 L 2.84375 -1.890625 Z M 1.078125 -1.890625 "/></g></g></g><g fill="#b867f0" fill-opacity="1"><g transform="translate(61.646363, 37.397177)"><g><path d="M 1.0625 0 L 0.609375 0 L 0.609375 -4 L 1.1875 -4 L 3.140625 -0.9375 L 3.203125 -0.953125 L 3.203125 -4 L 3.65625 -4 L 3.65625 0 L 3.171875 0 L 1.140625 -3.265625 L 1.0625 -3.265625 Z M 1.0625 0 "/></g></g></g><g fill="#b867f0" fill-opacity="1"><g transform="translate(66.259673, 37.397177)"><g><path d="M 3.125 -4 L 3.125 -3.609375 L 1.875 -3.609375 L 1.875 0 L 1.40625 0 L 1.40625 -3.609375 L 0.140625 -3.609375 L 0.140625 -4 Z M 3.125 -4 "/></g></g></g><g fill="#b867f0" fill-opacity="1"><g transform="translate(69.873056, 37.397177)"><g/></g></g><g fill="#7367f0" fill-opacity="1"><g transform="translate(71.596647, 37.397177)"><g><path d="M 1.75 0.0625 C 1.5 0.0625 1.269531 0.03125 1.0625 -0.03125 C 0.863281 -0.101562 0.695312 -0.195312 0.5625 -0.3125 C 0.4375 -0.425781 0.34375 -0.550781 0.28125 -0.6875 L 0.53125 -1 L 0.59375 -1 C 0.84375 -0.570312 1.226562 -0.359375 1.75 -0.359375 C 2.050781 -0.359375 2.273438 -0.421875 2.421875 -0.546875 C 2.566406 -0.679688 2.640625 -0.859375 2.640625 -1.078125 C 2.640625 -1.210938 2.613281 -1.320312 2.5625 -1.40625 C 2.519531 -1.5 2.441406 -1.578125 2.328125 -1.640625 C 2.210938 -1.710938 2.0625 -1.769531 1.875 -1.8125 L 1.40625 -1.9375 C 1.0625 -2.019531 0.804688 -2.148438 0.640625 -2.328125 C 0.472656 -2.515625 0.390625 -2.75 0.390625 -3.03125 C 0.390625 -3.226562 0.441406 -3.40625 0.546875 -3.5625 C 0.648438 -3.71875 0.796875 -3.835938 0.984375 -3.921875 C 1.179688 -4.015625 1.421875 -4.0625 1.703125 -4.0625 C 2.003906 -4.0625 2.253906 -4.019531 2.453125 -3.9375 C 2.660156 -3.851562 2.828125 -3.722656 2.953125 -3.546875 L 2.734375 -3.25 L 2.65625 -3.25 C 2.539062 -3.382812 2.40625 -3.484375 2.25 -3.546875 C 2.09375 -3.617188 1.910156 -3.65625 1.703125 -3.65625 C 1.421875 -3.65625 1.207031 -3.597656 1.0625 -3.484375 C 0.925781 -3.378906 0.859375 -3.234375 0.859375 -3.046875 C 0.859375 -2.859375 0.910156 -2.710938 1.015625 -2.609375 C 1.117188 -2.503906 1.296875 -2.421875 1.546875 -2.359375 L 2.015625 -2.25 C 2.410156 -2.15625 2.691406 -2.015625 2.859375 -1.828125 C 3.035156 -1.640625 3.125 -1.398438 3.125 -1.109375 C 3.125 -0.878906 3.070312 -0.675781 2.96875 -0.5 C 2.875 -0.320312 2.722656 -0.179688 2.515625 -0.078125 C 2.304688 0.015625 2.050781 0.0625 1.75 0.0625 Z M 1.75 0.0625 "/></g></g></g><g fill="#7367f0" fill-opacity="1"><g transform="translate(75.371663, 37.397177)"><g><path d="M 2.203125 0.0625 C 1.847656 0.0625 1.535156 -0.0078125 1.265625 -0.15625 C 0.992188 -0.3125 0.78125 -0.539062 0.625 -0.84375 C 0.476562 -1.15625 0.40625 -1.539062 0.40625 -2 C 0.40625 -2.457031 0.476562 -2.835938 0.625 -3.140625 C 0.78125 -3.453125 0.992188 -3.679688 1.265625 -3.828125 C 1.535156 -3.984375 1.847656 -4.0625 2.203125 -4.0625 C 2.546875 -4.0625 2.851562 -3.984375 3.125 -3.828125 C 3.394531 -3.679688 3.609375 -3.453125 3.765625 -3.140625 C 3.921875 -2.835938 4 -2.457031 4 -2 C 4 -1.539062 3.921875 -1.15625 3.765625 -0.84375 C 3.609375 -0.539062 3.394531 -0.3125 3.125 -0.15625 C 2.851562 -0.0078125 2.546875 0.0625 2.203125 0.0625 Z M 2.203125 -0.375 C 2.617188 -0.375 2.9375 -0.503906 3.15625 -0.765625 C 3.375 -1.023438 3.484375 -1.4375 3.484375 -2 C 3.484375 -2.5625 3.375 -2.972656 3.15625 -3.234375 C 2.9375 -3.492188 2.617188 -3.625 2.203125 -3.625 C 1.335938 -3.625 0.90625 -3.082031 0.90625 -2 C 0.90625 -0.914062 1.335938 -0.375 2.203125 -0.375 Z M 2.203125 -0.375 "/></g></g></g><g fill="#7367f0" fill-opacity="1"><g transform="translate(80.108248, 37.397177)"><g><path d="M 1.078125 -4 L 1.078125 -0.390625 L 3 -0.390625 L 3 0 L 0.609375 0 L 0.609375 -4 Z M 1.078125 -4 "/></g></g></g><g fill="#7367f0" fill-opacity="1"><g transform="translate(83.62575, 37.397177)"><g><path d="M 2.0625 0.0625 C 1.570312 0.0625 1.203125 -0.0625 0.953125 -0.3125 C 0.703125 -0.5625 0.578125 -0.929688 0.578125 -1.421875 L 0.578125 -4 L 1.046875 -4 L 1.046875 -1.4375 C 1.046875 -1.082031 1.128906 -0.816406 1.296875 -0.640625 C 1.460938 -0.460938 1.71875 -0.375 2.0625 -0.375 C 2.75 -0.375 3.09375 -0.726562 3.09375 -1.4375 L 3.09375 -4 L 3.5625 -4 L 3.5625 -1.421875 C 3.5625 -0.929688 3.429688 -0.5625 3.171875 -0.3125 C 2.921875 -0.0625 2.550781 0.0625 2.0625 0.0625 Z M 2.0625 0.0625 "/></g></g></g><g fill="#7367f0" fill-opacity="1"><g transform="translate(88.096604, 37.397177)"><g><path d="M 3.125 -4 L 3.125 -3.609375 L 1.875 -3.609375 L 1.875 0 L 1.40625 0 L 1.40625 -3.609375 L 0.140625 -3.609375 L 0.140625 -4 Z M 3.125 -4 "/></g></g></g><g fill="#7367f0" fill-opacity="1"><g transform="translate(91.709987, 37.397177)"><g><path d="M 1.078125 0 L 0.609375 0 L 0.609375 -4 L 1.078125 -4 Z M 1.078125 0 "/></g></g></g><g fill="#7367f0" fill-opacity="1"><g transform="translate(93.73719, 37.397177)"><g><path d="M 2.203125 0.0625 C 1.847656 0.0625 1.535156 -0.0078125 1.265625 -0.15625 C 0.992188 -0.3125 0.78125 -0.539062 0.625 -0.84375 C 0.476562 -1.15625 0.40625 -1.539062 0.40625 -2 C 0.40625 -2.457031 0.476562 -2.835938 0.625 -3.140625 C 0.78125 -3.453125 0.992188 -3.679688 1.265625 -3.828125 C 1.535156 -3.984375 1.847656 -4.0625 2.203125 -4.0625 C 2.546875 -4.0625 2.851562 -3.984375 3.125 -3.828125 C 3.394531 -3.679688 3.609375 -3.453125 3.765625 -3.140625 C 3.921875 -2.835938 4 -2.457031 4 -2 C 4 -1.539062 3.921875 -1.15625 3.765625 -0.84375 C 3.609375 -0.539062 3.394531 -0.3125 3.125 -0.15625 C 2.851562 -0.0078125 2.546875 0.0625 2.203125 0.0625 Z M 2.203125 -0.375 C 2.617188 -0.375 2.9375 -0.503906 3.15625 -0.765625 C 3.375 -1.023438 3.484375 -1.4375 3.484375 -2 C 3.484375 -2.5625 3.375 -2.972656 3.15625 -3.234375 C 2.9375 -3.492188 2.617188 -3.625 2.203125 -3.625 C 1.335938 -3.625 0.90625 -3.082031 0.90625 -2 C 0.90625 -0.914062 1.335938 -0.375 2.203125 -0.375 Z M 2.203125 -0.375 "/></g></g></g><g fill="#7367f0" fill-opacity="1"><g transform="translate(98.473776, 37.397177)"><g><path d="M 1.0625 0 L 0.609375 0 L 0.609375 -4 L 1.1875 -4 L 3.140625 -0.9375 L 3.203125 -0.953125 L 3.203125 -4 L 3.65625 -4 L 3.65625 0 L 3.171875 0 L 1.140625 -3.265625 L 1.0625 -3.265625 Z M 1.0625 0 "/></g></g></g><g fill="#7367f0" fill-opacity="1"><g transform="translate(103.087087, 37.397177)"><g><path d="M 1.75 0.0625 C 1.5 0.0625 1.269531 0.03125 1.0625 -0.03125 C 0.863281 -0.101562 0.695312 -0.195312 0.5625 -0.3125 C 0.4375 -0.425781 0.34375 -0.550781 0.28125 -0.6875 L 0.53125 -1 L 0.59375 -1 C 0.84375 -0.570312 1.226562 -0.359375 1.75 -0.359375 C 2.050781 -0.359375 2.273438 -0.421875 2.421875 -0.546875 C 2.566406 -0.679688 2.640625 -0.859375 2.640625 -1.078125 C 2.640625 -1.210938 2.613281 -1.320312 2.5625 -1.40625 C 2.519531 -1.5 2.441406 -1.578125 2.328125 -1.640625 C 2.210938 -1.710938 2.0625 -1.769531 1.875 -1.8125 L 1.40625 -1.9375 C 1.0625 -2.019531 0.804688 -2.148438 0.640625 -2.328125 C 0.472656 -2.515625 0.390625 -2.75 0.390625 -3.03125 C 0.390625 -3.226562 0.441406 -3.40625 0.546875 -3.5625 C 0.648438 -3.71875 0.796875 -3.835938 0.984375 -3.921875 C 1.179688 -4.015625 1.421875 -4.0625 1.703125 -4.0625 C 2.003906 -4.0625 2.253906 -4.019531 2.453125 -3.9375 C 2.660156 -3.851562 2.828125 -3.722656 2.953125 -3.546875 L 2.734375 -3.25 L 2.65625 -3.25 C 2.539062 -3.382812 2.40625 -3.484375 2.25 -3.546875 C 2.09375 -3.617188 1.910156 -3.65625 1.703125 -3.65625 C 1.421875 -3.65625 1.207031 -3.597656 1.0625 -3.484375 C 0.925781 -3.378906 0.859375 -3.234375 0.859375 -3.046875 C 0.859375 -2.859375 0.910156 -2.710938 1.015625 -2.609375 C 1.117188 -2.503906 1.296875 -2.421875 1.546875 -2.359375 L 2.015625 -2.25 C 2.410156 -2.15625 2.691406 -2.015625 2.859375 -1.828125 C 3.035156 -1.640625 3.125 -1.398438 3.125 -1.109375 C 3.125 -0.878906 3.070312 -0.675781 2.96875 -0.5 C 2.875 -0.320312 2.722656 -0.179688 2.515625 -0.078125 C 2.304688 0.015625 2.050781 0.0625 1.75 0.0625 Z M 1.75 0.0625 "/></g></g></g></svg>